# 3ds Max Wavefront OBJ Exporter v0.99 - (c)2007 guruware
# File Created: 11.10.2020 17:37:12

mtllib hexaaa.mtl

#
# object Box001
#

v  -9.9622 0.0386 5.2380
v  -9.9622 0.0386 -4.8889
v  0.0021 0.0386 -9.9938
v  9.9674 0.0386 -4.8889
v  9.9674 0.0386 5.2380
v  0.0031 0.0386 9.9855
v  -9.9622 2.1618 5.2380
v  0.0021 2.1618 9.9855
v  9.9674 2.1618 5.2380
v  9.9674 2.1618 -4.8889
v  0.0030 2.1618 -9.9938
v  -9.9622 2.1618 -4.8889
# 12 vertices

vn -0.6737 -0.6044 0.4252
vn -0.6784 -0.6064 -0.4147
vn -0.0001 -0.6174 -0.7866
vn 0.6784 -0.6064 -0.4147
vn 0.6737 -0.6044 0.4252
vn 0.0001 -0.6219 0.7831
vn -0.6737 0.6044 0.4253
vn -0.0001 0.6219 0.7831
vn 0.6737 0.6044 0.4253
vn 0.6784 0.6065 -0.4146
vn 0.0002 0.6174 -0.7866
vn -0.6784 0.6064 -0.4147
# 12 vertex normals

vt 1.0000 0.0000 0.0000
vt 1.0000 1.0000 0.0000
vt 0.5000 1.0000 0.0000
vt 0.0000 1.0000 0.0000
vt 0.0000 0.0000 0.0000
vt 0.5000 0.0000 0.0000
# 6 texture coords

o Box001
g Box001
usemtl wire_138008110
s 2
f 1/1/1 2/2/2 3/3/3 4/4/4 5/5/5 6/6/6 
s 4
f 7/5/7 8/6/8 9/1/9 10/2/10 11/3/11 12/4/12 
s 8
f 1/5/1 6/6/6 8/3/8 7/4/7 
s 16
f 5/5/5 4/1/4 10/2/10 9/4/9 
s 32
f 4/5/4 3/6/3 11/3/11 10/4/10 
s 64
f 2/5/2 1/1/1 7/2/7 12/4/12 
s 32
f 3/6/3 2/1/2 12/2/12 11/3/11 
s 8
f 6/6/6 5/1/5 9/2/9 8/3/8 
# 8 polygons

